<?xml version="1.0" encoding="UTF-8" standalone="no"?>
<!DOCTYPE svg PUBLIC "-//W3C//DTD SVG 1.1//EN" "http://www.w3.org/Graphics/SVG/1.1/DTD/svg11.dtd">
<svg width="100%" height="100%" viewBox="0 0 342 151" version="1.1" xmlns="http://www.w3.org/2000/svg" xmlns:xlink="http://www.w3.org/1999/xlink" xml:space="preserve" xmlns:serif="http://www.serif.com/" style="fill-rule:evenodd;clip-rule:evenodd;stroke-linejoin:round;stroke-miterlimit:2;">
    <g id="Layer_1-2" transform="matrix(0.465847,0,0,0.465261,0,0)">
        <g id="Layer_1-3">
            <g id="logo_blu.cdr">
                <path d="M190,96.1C134,96.1 100.6,131.7 97,135.1C93.3,138.5 86.6,138.8 86.6,131L86.6,0L0,0L0,320.6C56.7,320.6 65.4,263.6 79.1,263.6C92.8,263.6 104.4,322.4 184.6,322.4C264.8,322.4 297,275.6 297,204.6C297,133.6 246,96.1 190,96.1ZM159.3,254.6C125.5,254.6 100.1,237.5 100.1,208.9C100.1,180.3 125.4,163.1 159.3,163.1C193.2,163.1 218.4,178.9 218.4,208.9C218.4,238.9 193.1,254.6 159.3,254.6Z" style="fill:white;fill-rule:nonzero;"/>
                <rect x="330" y="0" width="84.6" height="322.4" style="fill:white;"/>
                <path d="M449,98.6L535,98.6L535,197.3C535,242.9 550.8,258.6 582.7,258.6C614.6,258.6 645,230.6 645,175.9L645,98.5L732,98.5L732,320.8C732,320.8 703.1,326.8 679.8,295.2C656.5,263.7 655.2,257 641.3,273.7C627.3,290.5 605.8,322.3 537,322.3C468.2,322.3 449,289.2 449,191.1L449,98.4L449,98.6Z" style="fill:white;fill-rule:nonzero;"/>
            </g>
        </g>
    </g>
</svg>
