<svg version="1.1" id="Layer_1" xmlns="http://www.w3.org/2000/svg" xmlns:xlink="http://www.w3.org/1999/xlink" x="0px" y="0px"
	 width="100%" viewBox="0 0 200 200" enable-background="new 0 0 200 200" xml:space="preserve">
<path fill="#694CFF" opacity="1.000000" stroke="none" 
	d="
M0.999999,138.000000 
	C1.000000,92.406334 1.000000,46.812668 1.000000,1.000000 
	C46.353992,1.000000 91.708336,1.000000 137.502838,1.359026 
	C134.071884,6.328464 130.449951,11.180084 126.273201,15.494614 
	C119.446533,22.546461 112.211266,29.200886 105.241928,36.117237 
	C101.505760,39.825008 98.078415,43.846008 94.310638,47.519424 
	C87.748688,53.917061 80.865280,59.990810 74.418205,66.499084 
	C65.058533,75.947617 56.097378,85.791534 46.715176,95.216896 
	C40.370110,101.591156 33.450558,107.391068 27.048748,113.711998 
	C20.390049,120.286583 14.137970,127.272354 7.500743,133.869720 
	C5.722391,135.637390 3.187555,136.644012 0.999999,138.000000 
z"/>
<path fill="#435AFF" opacity="1.000000" stroke="none" 
	d="
M201.000000,26.999996 
	C201.000000,44.687561 201.000000,62.375122 200.609924,80.540306 
	C197.985870,82.207741 195.086243,82.868774 193.642456,84.686295 
	C189.275192,90.184052 186.175369,96.821495 181.312225,101.766403 
	C168.962479,114.323799 155.795273,126.072472 143.203720,138.398651 
	C135.427307,146.011169 128.108414,154.090958 120.578850,161.955902 
	C118.756142,163.859802 116.973984,165.808121 115.067711,167.625366 
	C107.907494,174.451141 100.503128,181.036636 93.621712,188.130692 
	C91.112518,190.717453 88.951279,192.891876 85.220779,193.634399 
	C81.556648,194.363708 79.034584,196.823410 79.000000,201.000000 
	C62.312439,201.000000 45.624878,201.000000 28.472328,200.600342 
	C28.366074,198.789688 28.288990,196.969910 29.160933,196.040222 
	C32.482555,192.498611 36.117718,189.251816 39.622299,185.880905 
	C48.100414,177.726227 56.712009,169.703827 65.000824,161.360886 
	C71.858116,154.458801 78.123825,146.966293 85.024536,140.110733 
	C94.284340,130.911514 104.117111,122.286255 113.314674,113.027924 
	C125.191162,101.072952 136.550262,88.605057 148.379150,76.601425 
	C159.504593,65.311607 170.914734,54.300812 182.276169,43.245922 
	C186.169510,39.457619 190.249985,35.856739 194.331955,32.269203 
	C196.456924,30.401625 198.771210,28.749460 201.000000,26.999996 
z"/>
<path fill="#5952FF" opacity="1.000000" stroke="none" 
	d="
M0.999999,138.468658 
	C3.187555,136.644012 5.722391,135.637390 7.500743,133.869720 
	C14.137970,127.272354 20.390049,120.286583 27.048748,113.711998 
	C33.450558,107.391068 40.370110,101.591156 46.715176,95.216896 
	C56.097378,85.791534 65.058533,75.947617 74.418205,66.499084 
	C80.865280,59.990810 87.748688,53.917061 94.310638,47.519424 
	C98.078415,43.846008 101.505760,39.825008 105.241928,36.117237 
	C112.211266,29.200886 119.446533,22.546461 126.273201,15.494614 
	C130.449951,11.180084 134.071884,6.328464 137.971497,1.359026 
	C154.020889,1.000000 170.041794,1.000000 186.522949,1.377139 
	C186.041748,3.615421 185.468933,5.826040 184.094086,7.276375 
	C178.554794,13.119804 172.775497,18.736143 167.063721,24.415121 
	C166.241577,25.232538 165.271744,25.899466 164.424911,26.694269 
	C156.519150,34.114372 148.624039,41.545818 140.734375,48.983036 
	C140.498108,49.205750 140.389786,49.560287 140.163925,49.798508 
	C132.360962,58.028782 124.551369,66.252769 116.738647,74.473785 
	C116.626968,74.591309 116.446617,74.641647 116.327286,74.754089 
	C108.435844,82.189560 100.546005,89.626724 92.665390,97.073654 
	C92.430145,97.295959 92.332054,97.659348 92.106499,97.896553 
	C84.291397,106.115402 76.468994,114.327301 68.643547,122.536301 
	C68.531731,122.653603 68.350586,122.702942 68.231491,122.815430 
	C60.348930,130.260559 52.466000,137.705307 44.601074,145.169037 
	C44.251301,145.500961 44.135571,146.073547 43.796989,146.424103 
	C35.917660,154.581818 28.022984,162.724731 20.126341,170.865707 
	C20.014849,170.980652 19.815353,171.009476 19.701813,171.123276 
	C16.814835,174.016800 13.824210,176.816925 11.082068,179.842178 
	C8.224917,182.994324 6.179984,187.164154 1.000000,187.000000 
	C1.000000,170.979111 1.000000,154.958206 0.999999,138.468658 
z"/>
<path fill="#5055FF" opacity="1.000000" stroke="none" 
	d="
M1.000000,187.474121 
	C6.179984,187.164154 8.224917,182.994324 11.082068,179.842178 
	C13.824210,176.816925 16.814835,174.016800 19.701813,171.123276 
	C19.815353,171.009476 20.014849,170.980652 20.126341,170.865707 
	C28.022984,162.724731 35.917660,154.581818 43.796989,146.424103 
	C44.135571,146.073547 44.251301,145.500961 44.601074,145.169037 
	C52.466000,137.705307 60.348930,130.260559 68.231491,122.815430 
	C68.350586,122.702942 68.531731,122.653603 68.643547,122.536301 
	C76.468994,114.327301 84.291397,106.115402 92.106499,97.896553 
	C92.332054,97.659348 92.430145,97.295959 92.665390,97.073654 
	C100.546005,89.626724 108.435844,82.189560 116.327286,74.754089 
	C116.446617,74.641647 116.626968,74.591309 116.738647,74.473785 
	C124.551369,66.252769 132.360962,58.028782 140.163925,49.798508 
	C140.389786,49.560287 140.498108,49.205750 140.734375,48.983036 
	C148.624039,41.545818 156.519150,34.114372 164.424911,26.694269 
	C165.271744,25.899466 166.241577,25.232538 167.063721,24.415121 
	C172.775497,18.736143 178.554794,13.119804 184.094086,7.276375 
	C185.468933,5.826040 186.041748,3.615421 186.991608,1.377139 
	C191.615005,1.000000 196.229996,1.000000 201.000000,1.000000 
	C201.000000,9.353736 201.000000,17.708202 201.000000,26.531330 
	C198.771210,28.749460 196.456924,30.401625 194.331955,32.269203 
	C190.249985,35.856739 186.169510,39.457619 182.276169,43.245922 
	C170.914734,54.300812 159.504593,65.311607 148.379150,76.601425 
	C136.550262,88.605057 125.191162,101.072952 113.314674,113.027924 
	C104.117111,122.286255 94.284340,130.911514 85.024536,140.110733 
	C78.123825,146.966293 71.858116,154.458801 65.000824,161.360886 
	C56.712009,169.703827 48.100414,177.726227 39.622299,185.880905 
	C36.117718,189.251816 32.482555,192.498611 29.160933,196.040222 
	C28.288990,196.969910 28.366074,198.789688 28.003670,200.600342 
	C19.099613,201.000000 10.199225,201.000000 1.000000,201.000000 
	C1.000000,196.653915 1.000000,192.301086 1.000000,187.474121 
z"/>
<path fill="#3360FE" opacity="1.000000" stroke="none" 
	d="
M201.000000,113.000000 
	C201.000000,142.260239 201.000000,171.520477 201.000000,201.000000 
	C171.979477,201.000000 142.958389,201.000000 113.550568,200.666992 
	C116.844810,195.656479 120.199669,190.669113 124.281944,186.372940 
	C130.670425,179.649780 137.657135,173.499771 144.201202,166.918808 
	C158.693253,152.345093 172.941193,137.526108 187.573654,123.096146 
	C191.525085,119.199387 196.496674,116.337112 201.000000,113.000000 
z"/>
<path fill="#3B5DFF" opacity="1.000000" stroke="none" 
	d="
M201.000000,112.531342 
	C196.496674,116.337112 191.525085,119.199387 187.573654,123.096146 
	C172.941193,137.526108 158.693253,152.345093 144.201202,166.918808 
	C137.657135,173.499771 130.670425,179.649780 124.281944,186.372940 
	C120.199669,190.669113 116.844810,195.656479 113.081909,200.666992 
	C101.979103,201.000000 90.958214,201.000000 79.468658,201.000000 
	C79.034584,196.823410 81.556648,194.363708 85.220779,193.634399 
	C88.951279,192.891876 91.112518,190.717453 93.621712,188.130692 
	C100.503128,181.036636 107.907494,174.451141 115.067711,167.625366 
	C116.973984,165.808121 118.756142,163.859802 120.578850,161.955902 
	C128.108414,154.090958 135.427307,146.011169 143.203720,138.398651 
	C155.795273,126.072472 168.962479,114.323799 181.312225,101.766403 
	C186.175369,96.821495 189.275192,90.184052 193.642456,84.686295 
	C195.086243,82.868774 197.985870,82.207741 200.609924,81.008965 
	C201.000000,91.354225 201.000000,101.708458 201.000000,112.531342 
z"/>
</svg>